<svg width="762" height="400" xmlns="http://www.w3.org/2000/svg"><g class="layer" fill="none" stroke="#000" stroke-width="30"><path d="M377 58.5h161.5C627.69 58.5 700 119.17 700 194s-72.31 135.5-161.5 134.5H368"/><path d="M370 328.5H211.5c-87.54 0-158.5-60.44-158.5-135s70.96-135 158.5-135H379"/><path stroke-dasharray="null" stroke-linecap="null" stroke-linejoin="null" stroke-opacity="null" d="M157.5 78v236.5M105 94.75v199.5m106-227.5v260m54-261.5v254m54.5-251v249m54-246.5v247.5M426 67.75v253m56-256v259.5m56.5-256.5v256m56-255v242m52.5-211v188"/></g></svg>