<?xml version="1.0" encoding="UTF-8" standalone="no"?>
<svg
   xmlns:dc="http://purl.org/dc/elements/1.1/"
   xmlns:cc="http://creativecommons.org/ns#"
   xmlns:rdf="http://www.w3.org/1999/02/22-rdf-syntax-ns#"
   xmlns:svg="http://www.w3.org/2000/svg"
   xmlns="http://www.w3.org/2000/svg"
   viewBox="0 0 1600 1066.6667"
   height="1066.6667"
   width="1600"
   xml:space="preserve"
   id="svg2"
   version="1.1"><metadata
     id="metadata8"><rdf:RDF><cc:Work
         rdf:about=""><dc:format>image/svg+xml</dc:format><dc:type
           rdf:resource="http://purl.org/dc/dcmitype/StillImage" /></cc:Work></rdf:RDF></metadata><defs
     id="defs6"><pattern
       id="pattern138"
       height="1200"
       width="1200"
       y="0"
       x="0"
       patternUnits="userSpaceOnUse"
       patternTransform="matrix(11.2343,0,0,11.2343,9252,-2741)"><g
         id="g136"
         transform="scale(0.1)"><path
           id="path16"
           style="fill:#000000;fill-opacity:1;fill-rule:nonzero;stroke:none"
           d="m 12139.1,-13661.3 0,15322.64 -278.2,0 0,-15322.64 278.2,0" /><path
           id="path18"
           style="fill:#000000;fill-opacity:1;fill-rule:nonzero;stroke:none"
           d="m 12139.1,-13661.3 0,15322.64 -278.2,0 0,-15322.64 278.2,0" /><path
           id="path20"
           style="fill:#000000;fill-opacity:1;fill-rule:nonzero;stroke:none"
           d="m 139.145,-13661.3 0,15322.64 -278.293,0 0,-15322.64 278.293,0" /><path
           id="path22"
           style="fill:#050405;fill-opacity:1;fill-rule:nonzero;stroke:none"
           d="m 799.145,-13661.3 0,15322.64 -278.293,0 0,-15322.64 278.293,0" /><path
           id="path24"
           style="fill:#000000;fill-opacity:1;fill-rule:nonzero;stroke:none"
           d="m 1499.15,-13661.3 0,15322.64 -278.3,0 0,-15322.64 278.3,0" /><path
           id="path26"
           style="fill:#000000;fill-opacity:1;fill-rule:nonzero;stroke:none"
           d="m 2209.15,-13661.3 0,15322.64 -278.3,0 0,-15322.64 278.3,0" /><path
           id="path28"
           style="fill:#050500;fill-opacity:1;fill-rule:nonzero;stroke:none"
           d="m 2909.15,-13661.3 0,15322.64 -278.3,0 0,-15322.64 278.3,0" /><path
           id="path30"
           style="fill:#000000;fill-opacity:1;fill-rule:nonzero;stroke:none"
           d="m 3609.15,-13661.3 0,15322.64 -278.3,0 0,-15322.64 278.3,0" /><path
           id="path32"
           style="fill:#050405;fill-opacity:1;fill-rule:nonzero;stroke:none"
           d="m 4319.15,-13661.3 0,15322.64 -278.3,0 0,-15322.64 278.3,0" /><path
           id="path34"
           style="fill:#000000;fill-opacity:1;fill-rule:nonzero;stroke:none"
           d="m 5009.15,-13661.3 0,15322.64 -278.3,0 0,-15322.64 278.3,0" /><path
           id="path36"
           style="fill:#040203;fill-opacity:1;fill-rule:nonzero;stroke:none"
           d="m 5709.15,-13661.3 0,15322.64 -278.3,0 0,-15322.64 278.3,0" /><path
           id="path38"
           style="fill:#000000;fill-opacity:1;fill-rule:nonzero;stroke:none"
           d="m 6419.15,-13661.3 0,15322.64 -278.3,0 0,-15322.64 278.3,0" /><path
           id="path40"
           style="fill:#000000;fill-opacity:1;fill-rule:nonzero;stroke:none"
           d="m 7119.15,-13661.3 0,15322.64 -278.3,0 0,-15322.64 278.3,0" /><path
           id="path42"
           style="fill:#000000;fill-opacity:1;fill-rule:nonzero;stroke:none"
           d="m 7819.15,-13661.3 0,15322.64 -278.3,0 0,-15322.64 278.3,0" /><path
           id="path44"
           style="fill:#000000;fill-opacity:1;fill-rule:nonzero;stroke:none"
           d="m 8529.15,-13661.3 0,15322.64 -278.3,0 0,-15322.64 278.3,0" /><path
           id="path46"
           style="fill:#050405;fill-opacity:1;fill-rule:nonzero;stroke:none"
           d="m 9279.15,-13661.3 0,15322.64 -278.3,0 0,-15322.64 278.3,0" /><path
           id="path48"
           style="fill:#050500;fill-opacity:1;fill-rule:nonzero;stroke:none"
           d="m 9979.15,-13661.3 0,15322.64 -278.3,0 0,-15322.64 278.3,0" /><path
           id="path50"
           style="fill:#000000;fill-opacity:1;fill-rule:nonzero;stroke:none"
           d="m 10679.1,-13661.3 0,15322.64 -278.2,0 0,-15322.64 278.2,0" /><path
           id="path52"
           style="fill:#050500;fill-opacity:1;fill-rule:nonzero;stroke:none"
           d="m 11389.1,-13661.3 0,15322.64 -278.2,0 0,-15322.64 278.2,0" /><path
           id="path54"
           style="fill:#000000;fill-opacity:1;fill-rule:nonzero;stroke:none"
           d="m 139.145,-13661.3 0,15322.64 -278.293,0 0,-15322.64 278.293,0" /><path
           id="path56"
           style="fill:#000000;fill-opacity:1;fill-rule:nonzero;stroke:none"
           d="m 12139.1,-1661.34 0,15322.64 -278.2,0 0,-15322.64 278.2,0" /><path
           id="path58"
           style="fill:#000000;fill-opacity:1;fill-rule:nonzero;stroke:none"
           d="m 12139.1,-1661.34 0,15322.64 -278.2,0 0,-15322.64 278.2,0" /><path
           id="path60"
           style="fill:#000000;fill-opacity:1;fill-rule:nonzero;stroke:none"
           d="m 139.145,-1661.34 0,15322.64 -278.293,0 0,-15322.64 278.293,0" /><path
           id="path62"
           style="fill:#050405;fill-opacity:1;fill-rule:nonzero;stroke:none"
           d="m 799.145,-1661.34 0,15322.64 -278.293,0 0,-15322.64 278.293,0" /><path
           id="path64"
           style="fill:#000000;fill-opacity:1;fill-rule:nonzero;stroke:none"
           d="m 1499.15,-1661.34 0,15322.64 -278.3,0 0,-15322.64 278.3,0" /><path
           id="path66"
           style="fill:#000000;fill-opacity:1;fill-rule:nonzero;stroke:none"
           d="m 2209.15,-1661.34 0,15322.64 -278.3,0 0,-15322.64 278.3,0" /><path
           id="path68"
           style="fill:#050500;fill-opacity:1;fill-rule:nonzero;stroke:none"
           d="m 2909.15,-1661.34 0,15322.64 -278.3,0 0,-15322.64 278.3,0" /><path
           id="path70"
           style="fill:#000000;fill-opacity:1;fill-rule:nonzero;stroke:none"
           d="m 3609.15,-1661.34 0,15322.64 -278.3,0 0,-15322.64 278.3,0" /><path
           id="path72"
           style="fill:#050405;fill-opacity:1;fill-rule:nonzero;stroke:none"
           d="m 4319.15,-1661.34 0,15322.64 -278.3,0 0,-15322.64 278.3,0" /><path
           id="path74"
           style="fill:#000000;fill-opacity:1;fill-rule:nonzero;stroke:none"
           d="m 5009.15,-1661.34 0,15322.64 -278.3,0 0,-15322.64 278.3,0" /><path
           id="path76"
           style="fill:#040203;fill-opacity:1;fill-rule:nonzero;stroke:none"
           d="m 5709.15,-1661.34 0,15322.64 -278.3,0 0,-15322.64 278.3,0" /><path
           id="path78"
           style="fill:#000000;fill-opacity:1;fill-rule:nonzero;stroke:none"
           d="m 6419.15,-1661.34 0,15322.64 -278.3,0 0,-15322.64 278.3,0" /><path
           id="path80"
           style="fill:#000000;fill-opacity:1;fill-rule:nonzero;stroke:none"
           d="m 7119.15,-1661.34 0,15322.64 -278.3,0 0,-15322.64 278.3,0" /><path
           id="path82"
           style="fill:#000000;fill-opacity:1;fill-rule:nonzero;stroke:none"
           d="m 7819.15,-1661.34 0,15322.64 -278.3,0 0,-15322.64 278.3,0" /><path
           id="path84"
           style="fill:#000000;fill-opacity:1;fill-rule:nonzero;stroke:none"
           d="m 8529.15,-1661.34 0,15322.64 -278.3,0 0,-15322.64 278.3,0" /><path
           id="path86"
           style="fill:#050405;fill-opacity:1;fill-rule:nonzero;stroke:none"
           d="m 9279.15,-1661.34 0,15322.64 -278.3,0 0,-15322.64 278.3,0" /><path
           id="path88"
           style="fill:#050500;fill-opacity:1;fill-rule:nonzero;stroke:none"
           d="m 9979.15,-1661.34 0,15322.64 -278.3,0 0,-15322.64 278.3,0" /><path
           id="path90"
           style="fill:#000000;fill-opacity:1;fill-rule:nonzero;stroke:none"
           d="m 10679.1,-1661.34 0,15322.64 -278.2,0 0,-15322.64 278.2,0" /><path
           id="path92"
           style="fill:#050500;fill-opacity:1;fill-rule:nonzero;stroke:none"
           d="m 11389.1,-1661.34 0,15322.64 -278.2,0 0,-15322.64 278.2,0" /><path
           id="path94"
           style="fill:#000000;fill-opacity:1;fill-rule:nonzero;stroke:none"
           d="m 139.145,-1661.34 0,15322.64 -278.293,0 0,-15322.64 278.293,0" /><path
           id="path96"
           style="fill:#000000;fill-opacity:1;fill-rule:nonzero;stroke:none"
           d="m 12139.1,10338.7 0,15322.6 -278.2,0 0,-15322.6 278.2,0" /><path
           id="path98"
           style="fill:#000000;fill-opacity:1;fill-rule:nonzero;stroke:none"
           d="m 12139.1,10338.7 0,15322.6 -278.2,0 0,-15322.6 278.2,0" /><path
           id="path100"
           style="fill:#000000;fill-opacity:1;fill-rule:nonzero;stroke:none"
           d="m 139.145,10338.7 0,15322.6 -278.293,0 0,-15322.6 278.293,0" /><path
           id="path102"
           style="fill:#050405;fill-opacity:1;fill-rule:nonzero;stroke:none"
           d="m 799.145,10338.7 0,15322.6 -278.293,0 0,-15322.6 278.293,0" /><path
           id="path104"
           style="fill:#000000;fill-opacity:1;fill-rule:nonzero;stroke:none"
           d="m 1499.15,10338.7 0,15322.6 -278.3,0 0,-15322.6 278.3,0" /><path
           id="path106"
           style="fill:#000000;fill-opacity:1;fill-rule:nonzero;stroke:none"
           d="m 2209.15,10338.7 0,15322.6 -278.3,0 0,-15322.6 278.3,0" /><path
           id="path108"
           style="fill:#050500;fill-opacity:1;fill-rule:nonzero;stroke:none"
           d="m 2909.15,10338.7 0,15322.6 -278.3,0 0,-15322.6 278.3,0" /><path
           id="path110"
           style="fill:#000000;fill-opacity:1;fill-rule:nonzero;stroke:none"
           d="m 3609.15,10338.7 0,15322.6 -278.3,0 0,-15322.6 278.3,0" /><path
           id="path112"
           style="fill:#050405;fill-opacity:1;fill-rule:nonzero;stroke:none"
           d="m 4319.15,10338.7 0,15322.6 -278.3,0 0,-15322.6 278.3,0" /><path
           id="path114"
           style="fill:#000000;fill-opacity:1;fill-rule:nonzero;stroke:none"
           d="m 5009.15,10338.7 0,15322.6 -278.3,0 0,-15322.6 278.3,0" /><path
           id="path116"
           style="fill:#040203;fill-opacity:1;fill-rule:nonzero;stroke:none"
           d="m 5709.15,10338.7 0,15322.6 -278.3,0 0,-15322.6 278.3,0" /><path
           id="path118"
           style="fill:#000000;fill-opacity:1;fill-rule:nonzero;stroke:none"
           d="m 6419.15,10338.7 0,15322.6 -278.3,0 0,-15322.6 278.3,0" /><path
           id="path120"
           style="fill:#000000;fill-opacity:1;fill-rule:nonzero;stroke:none"
           d="m 7119.15,10338.7 0,15322.6 -278.3,0 0,-15322.6 278.3,0" /><path
           id="path122"
           style="fill:#000000;fill-opacity:1;fill-rule:nonzero;stroke:none"
           d="m 7819.15,10338.7 0,15322.6 -278.3,0 0,-15322.6 278.3,0" /><path
           id="path124"
           style="fill:#000000;fill-opacity:1;fill-rule:nonzero;stroke:none"
           d="m 8529.15,10338.7 0,15322.6 -278.3,0 0,-15322.6 278.3,0" /><path
           id="path126"
           style="fill:#050405;fill-opacity:1;fill-rule:nonzero;stroke:none"
           d="m 9279.15,10338.7 0,15322.6 -278.3,0 0,-15322.6 278.3,0" /><path
           id="path128"
           style="fill:#050500;fill-opacity:1;fill-rule:nonzero;stroke:none"
           d="m 9979.15,10338.7 0,15322.6 -278.3,0 0,-15322.6 278.3,0" /><path
           id="path130"
           style="fill:#000000;fill-opacity:1;fill-rule:nonzero;stroke:none"
           d="m 10679.1,10338.7 0,15322.6 -278.2,0 0,-15322.6 278.2,0" /><path
           id="path132"
           style="fill:#050500;fill-opacity:1;fill-rule:nonzero;stroke:none"
           d="m 11389.1,10338.7 0,15322.6 -278.2,0 0,-15322.6 278.2,0" /><path
           id="path134"
           style="fill:#000000;fill-opacity:1;fill-rule:nonzero;stroke:none"
           d="m 139.145,10338.7 0,15322.6 -278.293,0 0,-15322.6 278.293,0" /></g></pattern></defs><g
     transform="matrix(1.3333333,0,0,-1.3333333,0,1066.6667)"
     id="g10"><g
       transform="scale(0.1)"
       id="g12"><path
         id="path14"
         style="fill:#f9f7f7;fill-opacity:1;fill-rule:nonzero;stroke:none"
         d="M 12000,0 H 0 V 8000 H 12000 V 0" /><path
         id="path140"
         style="fill:url(#pattern138);fill-opacity:1;fill-rule:nonzero;stroke:none"
         d="M 12000,0 H 0 V 8000 H 12000 V 0" /></g></g></svg>