<?xml version="1.0"?>
<svg width="762" height="392" xmlns="http://www.w3.org/2000/svg" xmlns:svg="http://www.w3.org/2000/svg" clip-rule="evenodd" fill-rule="evenodd" version="1.1">
  <g>
   <path d="m519.5,341.5c-24.32,0.84 -48.66,1.18 -73,1c-12.55,-1.39 -24.88,-3.89 -37,-7.5c-29.27,-11.2 -58.6,-22.2 -88,-33c-44.73,-13.4 -86.73,-7.73 -126,17c-26.01,20.29 -54.34,36.95 -85,50c-13.29,2.6 -26.62,2.93 -40,1c-4.95,-1.81 -9.61,-4.14 -14,-7c-5.18,-4.88 -10.01,-10.05 -14.5,-15.5c-13.74,-28.75 -20.07,-59.08 -19,-91c-6.48,-56.79 7.86,-107.46 43,-152c54.83,-58.17 121.33,-78.17 199.5,-60c8.02,3.09 16.35,5.42 25,7c40.31,15.83 80.31,32.17 120,49c31.92,8.48 40.42,9.81 56.5,8.25c16.08,-1.56 36.21,-8.43 53.5,-15.75c32.93,-15.46 64.27,-33.46 94,-54c17.35,-10.8 36.01,-14.14 56,-10c10.78,5.78 19.28,13.95 25.5,24.5c9.83,16.97 15.16,35.3 16,55c5.93,67.94 -15.9,125.11 -65.5,171.5c-36.47,32.23 -78.8,52.73 -127,61.5zm18,-27c-7.01,2 -15.17,4.67 -23.5,5.5c-8.33,0.83 -44.57,0.95 -70.25,0.25c-32.72,-7.13 -54.13,-17.21 -84.75,-30.75c-14.09,-5.14 -33.43,-11.73 -48,-15.25c-20.11,-3.14 -42.86,-1.31 -62.75,1.5c-5.8,0.49 -15.38,2.66 -20.25,5.5c-10.53,2.35 -22.03,7.68 -31.5,13c-20.67,13.33 -39.83,25.92 -60.5,39.25c-16.31,9.44 -29.56,12.02 -48.25,14.25c-21.76,-1.75 -27.76,-9.42 -32,-31c-8.03,-26.07 -11.78,-46.74 -10.75,-74c-3.34,-80.7 28.91,-130.7 100.25,-167c33,-12.88 59.75,-19.13 94.75,-14.25c30.63,5.41 55.55,14.32 84.25,26.25c19.92,9.19 38.17,15.69 58.25,24.5c34,10.28 23.77,8.03 44.5,12.75c20.73,4.72 17.92,4 35.5,3.25c17.58,-0.75 14.67,-0.5 34,-5c19.33,-4.5 21.04,-7.15 27.25,-9.5c12,-5.67 26.5,-12.08 38.5,-17.75c22.67,-13.67 44.83,-26.83 67.5,-40.5c9.34,-4.01 14.51,-8.09 24.5,-9.75c11.03,0.76 14.78,0.51 20.75,9.75c25.73,47.99 24.82,94.41 1.75,143.75c-22.5,49.17 -53.58,78.5 -102.75,101c-11.77,5.2 -29.49,12.25 -36.5,14.25z" fill="#000000" id="svg_4"/>
  </g>
</svg>