<svg width="762" height="392" xmlns="http://www.w3.org/2000/svg" clip-rule="evenodd" fill-rule="evenodd"><g class="layer"><path d="M519.5 341.5c-24.32.84-48.66 1.18-73 1a210.528 210.528 0 0 1-37-7.5c-29.27-11.2-58.6-22.2-88-33-44.73-13.4-86.73-7.73-126 17-26.01 20.29-54.34 36.95-85 50-13.29 2.6-26.62 2.93-40 1a68.874 68.874 0 0 1-14-7A168.273 168.273 0 0 1 42 347.5c-13.74-28.75-20.07-59.08-19-91-6.48-56.79 7.86-107.46 43-152 54.83-58.17 121.33-78.17 199.5-60 8.02 3.09 16.35 5.42 25 7 40.31 15.83 80.31 32.17 120 49 31.92 8.48 40.42 9.81 56.5 8.25 16.08-1.56 36.21-8.43 53.5-15.75 32.93-15.46 64.27-33.46 94-54 17.35-10.8 36.01-14.14 56-10 10.78 5.78 19.28 13.95 25.5 24.5 9.83 16.97 15.16 35.3 16 55 5.93 67.94-15.9 125.11-65.5 171.5-36.47 32.23-78.8 52.73-127 61.5zm18-27c-7.01 2-15.17 4.67-23.5 5.5-8.33.83-44.57.95-70.25.25-32.72-7.13-54.13-17.21-84.75-30.75-14.09-5.14-33.43-11.73-48-15.25-20.11-3.14-42.86-1.31-62.75 1.5-5.8.49-15.38 2.66-20.25 5.5-10.53 2.35-22.03 7.68-31.5 13-20.67 13.33-39.83 25.92-60.5 39.25-16.31 9.44-29.56 12.02-48.25 14.25-21.76-1.75-27.76-9.42-32-31-8.03-26.07-11.78-46.74-10.75-74-3.34-80.7 28.91-130.7 100.25-167C178.25 62.87 205 56.62 240 61.5c30.63 5.41 55.55 14.32 84.25 26.25 19.92 9.19 38.17 15.69 58.25 24.5 34 10.28 23.77 8.03 44.5 12.75 20.73 4.72 17.92 4 35.5 3.25s14.67-.5 34-5 21.04-7.15 27.25-9.5c12-5.67 26.5-12.08 38.5-17.75 22.67-13.67 44.83-26.83 67.5-40.5 9.34-4.01 14.51-8.09 24.5-9.75 11.03.76 14.78.51 20.75 9.75 25.73 47.99 24.82 94.41 1.75 143.75-22.5 49.17-53.58 78.5-102.75 101-11.77 5.2-29.49 12.25-36.5 14.25z"/><path fill="none" stroke="#000" stroke-dasharray="null" stroke-linecap="null" stroke-linejoin="null" stroke-opacity="null" stroke-width="25" d="m82 103-.5 247.5m48.75-276.75-.5 273.5m50-290.5-.5 261m50-268.5-.5 247.5m49-241-.5 221.5m44.5-198-.5 208m50-192.5-.5 219m49-196.5-.5 213m51-213.5-.5 220m49-229.5-.5 219m47-246.5-.5 237m48-262-.5 232m47.5-252.5-.5 214"/></g></svg>